<?xml version="1.0" encoding="UTF-8"?>
<svg xmlns="http://www.w3.org/2000/svg" viewBox="0 0 312 80" width="312" height="80" role="img" aria-labelledby="t">
  <title id="t">Noor ť Bougies artisanales</title>
  <defs>
    <style type="text/css">
      @import url("https://fonts.googleapis.com/css2?family=Dancing+Script:wght@500&amp;family=Playfair+Display:wght@600&amp;family=Poppins:wght@500&amp;display=swap");
      .arc {
        fill: none;
        stroke: #4a3d35;
        stroke-width: 1.25;
        stroke-linecap: round;
      }
      .ink {
        fill: #4a3d35;
      }
      .w {
        font-family: "Playfair Display", Georgia, serif;
        font-size: 26px;
        font-weight: 600;
        letter-spacing: 0.14em;
        fill: #4a3d35;
      }
      .s {
        font-family: "Poppins", sans-serif;
        font-size: 7.2px;
        font-weight: 500;
        letter-spacing: 0.26em;
        fill: #4a3d35;
      }
      .tag {
        font-family: "Dancing Script", cursive;
        font-size: 15px;
        font-weight: 500;
        fill: #4a3d35;
      }
    </style>
  </defs>
  <path class="arc" d="M 14 38 Q 46 4 78 38" />
  <path
    class="ink"
    d="M 28 24 L 29.3 26.8 L 32.2 26 L 30 28.6 L 31.6 31.2 L 28 29.6 L 24.4 31.2 L 26 28.6 L 23.8 26 L 26.7 26.8 Z"
  />
  <path
    class="ink"
    d="M 64 26 L 65.2 28.5 L 67.8 28 L 66 30 L 67.2 32.5 L 64 31 L 60.8 32.5 L 62 30 L 60.2 28 L 62.8 28.5 Z"
  />
  <path
    class="ink"
    d="M 46 14 L 47.2 16.5 L 49.8 16 L 48 18 L 49.2 20.5 L 46 19 L 42.8 20.5 L 44 18 L 42.2 16 L 44.8 16.5 Z"
  />
  <path class="ink" d="M 46 54 Q 36 54 38.5 40 Q 41 28 46 23 Q 51 28 53.5 40 Q 56 54 46 54 Z" />
  <text x="200" y="44" text-anchor="middle" class="w">NOOR</text>
  <text x="200" y="58" text-anchor="middle" class="s">BOUGIES ARTISANALES</text>
  <text x="200" y="76" text-anchor="middle" class="tag">Lumiťre. Douceur. ťlťgance.</text>
</svg>
